<mxfile host="Electron" modified="2024-08-09T13:02:33.696Z" agent="Mozilla/5.0 (Macintosh; Intel Mac OS X 10_15_7) AppleWebKit/537.36 (KHTML, like Gecko) draw.io/21.6.8 Chrome/114.0.5735.289 Electron/25.5.0 Safari/537.36" etag="O931m0NzP0OIavd1cDW-" version="21.6.8" type="device">
  <diagram name="PÃ¡gina-1" id="aCM-GguJ48WPwrWA996X">
    <mxGraphModel dx="1753" dy="685" grid="1" gridSize="10" guides="1" tooltips="1" connect="1" arrows="1" fold="1" page="1" pageScale="1" pageWidth="827" pageHeight="1169" math="0" shadow="0">
      <root>
        <mxCell id="0" />
        <mxCell id="1" parent="0" />
        <mxCell id="l_KEQIapoq9a7eLSXvsr-1" value="Message" style="ellipse;shape=umlEntity;whiteSpace=wrap;html=1;sketch=1;hachureGap=4;jiggle=2;curveFitting=1;fontFamily=Architects Daughter;fontSource=https%3A%2F%2Ffonts.googleapis.com%2Fcss%3Ffamily%3DArchitects%2BDaughter;fontSize=20;fillColor=#f8cecc;strokeColor=#b85450;" vertex="1" parent="1">
          <mxGeometry x="167" y="90" width="100" height="100" as="geometry" />
        </mxCell>
        <mxCell id="l_KEQIapoq9a7eLSXvsr-2" value="Sensor" style="ellipse;shape=umlEntity;whiteSpace=wrap;html=1;sketch=1;hachureGap=4;jiggle=2;curveFitting=1;fontFamily=Architects Daughter;fontSource=https%3A%2F%2Ffonts.googleapis.com%2Fcss%3Ffamily%3DArchitects%2BDaughter;fontSize=20;dashed=1;fillColor=#d5e8d4;strokeColor=#82b366;" vertex="1" parent="1">
          <mxGeometry x="25" y="420" width="100" height="100" as="geometry" />
        </mxCell>
        <mxCell id="l_KEQIapoq9a7eLSXvsr-6" style="edgeStyle=orthogonalEdgeStyle;sketch=1;hachureGap=4;jiggle=2;curveFitting=1;orthogonalLoop=1;jettySize=auto;html=1;entryX=0.5;entryY=0;entryDx=0;entryDy=0;fontFamily=Architects Daughter;fontSource=https%3A%2F%2Ffonts.googleapis.com%2Fcss%3Ffamily%3DArchitects%2BDaughter;fontSize=16;curved=1;dashed=1;" edge="1" parent="1" source="l_KEQIapoq9a7eLSXvsr-3" target="l_KEQIapoq9a7eLSXvsr-2">
          <mxGeometry relative="1" as="geometry" />
        </mxCell>
        <mxCell id="l_KEQIapoq9a7eLSXvsr-3" value="DHT" style="ellipse;shape=umlEntity;whiteSpace=wrap;html=1;sketch=1;hachureGap=4;jiggle=2;curveFitting=1;fontFamily=Architects Daughter;fontSource=https%3A%2F%2Ffonts.googleapis.com%2Fcss%3Ffamily%3DArchitects%2BDaughter;fontSize=20;fillColor=#d5e8d4;strokeColor=#82b366;" vertex="1" parent="1">
          <mxGeometry x="225" y="300" width="100" height="100" as="geometry" />
        </mxCell>
        <mxCell id="l_KEQIapoq9a7eLSXvsr-5" style="edgeStyle=orthogonalEdgeStyle;sketch=1;hachureGap=4;jiggle=2;curveFitting=1;orthogonalLoop=1;jettySize=auto;html=1;entryX=0.5;entryY=1;entryDx=0;entryDy=0;fontFamily=Architects Daughter;fontSource=https%3A%2F%2Ffonts.googleapis.com%2Fcss%3Ffamily%3DArchitects%2BDaughter;fontSize=16;curved=1;dashed=1;" edge="1" parent="1" source="l_KEQIapoq9a7eLSXvsr-4" target="l_KEQIapoq9a7eLSXvsr-2">
          <mxGeometry relative="1" as="geometry" />
        </mxCell>
        <mxCell id="l_KEQIapoq9a7eLSXvsr-4" value="FC" style="ellipse;shape=umlEntity;whiteSpace=wrap;html=1;sketch=1;hachureGap=4;jiggle=2;curveFitting=1;fontFamily=Architects Daughter;fontSource=https%3A%2F%2Ffonts.googleapis.com%2Fcss%3Ffamily%3DArchitects%2BDaughter;fontSize=20;fillColor=#d5e8d4;strokeColor=#82b366;" vertex="1" parent="1">
          <mxGeometry x="229" y="550" width="100" height="100" as="geometry" />
        </mxCell>
        <mxCell id="l_KEQIapoq9a7eLSXvsr-8" style="edgeStyle=orthogonalEdgeStyle;rounded=0;sketch=1;hachureGap=4;jiggle=2;curveFitting=1;orthogonalLoop=1;jettySize=auto;html=1;entryX=1;entryY=0.5;entryDx=0;entryDy=0;fontFamily=Architects Daughter;fontSource=https%3A%2F%2Ffonts.googleapis.com%2Fcss%3Ffamily%3DArchitects%2BDaughter;fontSize=16;dashed=1;" edge="1" parent="1" source="l_KEQIapoq9a7eLSXvsr-7" target="l_KEQIapoq9a7eLSXvsr-2">
          <mxGeometry relative="1" as="geometry" />
        </mxCell>
        <mxCell id="l_KEQIapoq9a7eLSXvsr-7" value="YFS" style="ellipse;shape=umlEntity;whiteSpace=wrap;html=1;sketch=1;hachureGap=4;jiggle=2;curveFitting=1;fontFamily=Architects Daughter;fontSource=https%3A%2F%2Ffonts.googleapis.com%2Fcss%3Ffamily%3DArchitects%2BDaughter;fontSize=20;fillColor=#d5e8d4;strokeColor=#82b366;" vertex="1" parent="1">
          <mxGeometry x="229" y="420" width="100" height="100" as="geometry" />
        </mxCell>
        <mxCell id="l_KEQIapoq9a7eLSXvsr-12" style="edgeStyle=orthogonalEdgeStyle;rounded=0;sketch=1;hachureGap=4;jiggle=2;curveFitting=1;orthogonalLoop=1;jettySize=auto;html=1;entryX=1;entryY=0.5;entryDx=0;entryDy=0;fontFamily=Architects Daughter;fontSource=https%3A%2F%2Ffonts.googleapis.com%2Fcss%3Ffamily%3DArchitects%2BDaughter;fontSize=16;" edge="1" parent="1" source="l_KEQIapoq9a7eLSXvsr-9" target="l_KEQIapoq9a7eLSXvsr-3">
          <mxGeometry relative="1" as="geometry" />
        </mxCell>
        <mxCell id="l_KEQIapoq9a7eLSXvsr-17" style="edgeStyle=orthogonalEdgeStyle;sketch=1;hachureGap=4;jiggle=2;curveFitting=1;orthogonalLoop=1;jettySize=auto;html=1;entryX=0.5;entryY=0;entryDx=0;entryDy=0;fontFamily=Architects Daughter;fontSource=https%3A%2F%2Ffonts.googleapis.com%2Fcss%3Ffamily%3DArchitects%2BDaughter;fontSize=16;curved=1;dashed=1;" edge="1" parent="1" source="l_KEQIapoq9a7eLSXvsr-9" target="l_KEQIapoq9a7eLSXvsr-15">
          <mxGeometry relative="1" as="geometry" />
        </mxCell>
        <mxCell id="l_KEQIapoq9a7eLSXvsr-9" value="Ambient&lt;br&gt;Measure" style="ellipse;shape=umlEntity;whiteSpace=wrap;html=1;sketch=1;hachureGap=4;jiggle=2;curveFitting=1;fontFamily=Architects Daughter;fontSource=https%3A%2F%2Ffonts.googleapis.com%2Fcss%3Ffamily%3DArchitects%2BDaughter;fontSize=20;fillColor=#dae8fc;strokeColor=#6c8ebf;" vertex="1" parent="1">
          <mxGeometry x="475" y="300" width="100" height="100" as="geometry" />
        </mxCell>
        <mxCell id="l_KEQIapoq9a7eLSXvsr-14" style="edgeStyle=orthogonalEdgeStyle;rounded=0;sketch=1;hachureGap=4;jiggle=2;curveFitting=1;orthogonalLoop=1;jettySize=auto;html=1;entryX=1;entryY=0.5;entryDx=0;entryDy=0;fontFamily=Architects Daughter;fontSource=https%3A%2F%2Ffonts.googleapis.com%2Fcss%3Ffamily%3DArchitects%2BDaughter;fontSize=16;" edge="1" parent="1" source="l_KEQIapoq9a7eLSXvsr-10" target="l_KEQIapoq9a7eLSXvsr-4">
          <mxGeometry relative="1" as="geometry" />
        </mxCell>
        <mxCell id="l_KEQIapoq9a7eLSXvsr-18" style="edgeStyle=orthogonalEdgeStyle;sketch=1;hachureGap=4;jiggle=2;curveFitting=1;orthogonalLoop=1;jettySize=auto;html=1;entryX=0.5;entryY=1;entryDx=0;entryDy=0;fontFamily=Architects Daughter;fontSource=https%3A%2F%2Ffonts.googleapis.com%2Fcss%3Ffamily%3DArchitects%2BDaughter;fontSize=16;curved=1;dashed=1;" edge="1" parent="1" source="l_KEQIapoq9a7eLSXvsr-10" target="l_KEQIapoq9a7eLSXvsr-15">
          <mxGeometry relative="1" as="geometry" />
        </mxCell>
        <mxCell id="l_KEQIapoq9a7eLSXvsr-10" value="Ground&lt;br&gt;Measure" style="ellipse;shape=umlEntity;whiteSpace=wrap;html=1;sketch=1;hachureGap=4;jiggle=2;curveFitting=1;fontFamily=Architects Daughter;fontSource=https%3A%2F%2Ffonts.googleapis.com%2Fcss%3Ffamily%3DArchitects%2BDaughter;fontSize=20;fillColor=#dae8fc;strokeColor=#6c8ebf;" vertex="1" parent="1">
          <mxGeometry x="475" y="550" width="100" height="100" as="geometry" />
        </mxCell>
        <mxCell id="l_KEQIapoq9a7eLSXvsr-13" style="edgeStyle=orthogonalEdgeStyle;rounded=0;sketch=1;hachureGap=4;jiggle=2;curveFitting=1;orthogonalLoop=1;jettySize=auto;html=1;fontFamily=Architects Daughter;fontSource=https%3A%2F%2Ffonts.googleapis.com%2Fcss%3Ffamily%3DArchitects%2BDaughter;fontSize=16;" edge="1" parent="1" source="l_KEQIapoq9a7eLSXvsr-11" target="l_KEQIapoq9a7eLSXvsr-7">
          <mxGeometry relative="1" as="geometry" />
        </mxCell>
        <mxCell id="l_KEQIapoq9a7eLSXvsr-16" style="edgeStyle=orthogonalEdgeStyle;rounded=0;sketch=1;hachureGap=4;jiggle=2;curveFitting=1;orthogonalLoop=1;jettySize=auto;html=1;entryX=0;entryY=0.5;entryDx=0;entryDy=0;fontFamily=Architects Daughter;fontSource=https%3A%2F%2Ffonts.googleapis.com%2Fcss%3Ffamily%3DArchitects%2BDaughter;fontSize=16;dashed=1;" edge="1" parent="1" source="l_KEQIapoq9a7eLSXvsr-11" target="l_KEQIapoq9a7eLSXvsr-15">
          <mxGeometry relative="1" as="geometry" />
        </mxCell>
        <mxCell id="l_KEQIapoq9a7eLSXvsr-11" value="Watering&lt;br&gt;Measure" style="ellipse;shape=umlEntity;whiteSpace=wrap;html=1;sketch=1;hachureGap=4;jiggle=2;curveFitting=1;fontFamily=Architects Daughter;fontSource=https%3A%2F%2Ffonts.googleapis.com%2Fcss%3Ffamily%3DArchitects%2BDaughter;fontSize=20;fillColor=#dae8fc;strokeColor=#6c8ebf;" vertex="1" parent="1">
          <mxGeometry x="475" y="420" width="100" height="100" as="geometry" />
        </mxCell>
        <mxCell id="l_KEQIapoq9a7eLSXvsr-15" value="Measure" style="ellipse;shape=umlEntity;whiteSpace=wrap;html=1;sketch=1;hachureGap=4;jiggle=2;curveFitting=1;fontFamily=Architects Daughter;fontSource=https%3A%2F%2Ffonts.googleapis.com%2Fcss%3Ffamily%3DArchitects%2BDaughter;fontSize=20;dashed=1;fillColor=#dae8fc;strokeColor=#6c8ebf;" vertex="1" parent="1">
          <mxGeometry x="702" y="420" width="100" height="100" as="geometry" />
        </mxCell>
        <mxCell id="l_KEQIapoq9a7eLSXvsr-19" value="Air temp &amp;amp; hum&lt;br style=&quot;font-size: 14px;&quot;&gt;sensor" style="shape=note;whiteSpace=wrap;html=1;backgroundOutline=1;darkOpacity=0.05;hachureGap=4;fontFamily=Architects Daughter;fontSource=https%3A%2F%2Ffonts.googleapis.com%2Fcss%3Ffamily%3DArchitects%2BDaughter;fontSize=14;size=18;fillColor=#fff2cc;strokeColor=#d6b656;" vertex="1" parent="1">
          <mxGeometry x="290" y="290" width="150" height="30" as="geometry" />
        </mxCell>
        <mxCell id="l_KEQIapoq9a7eLSXvsr-20" value="Flow sensor" style="shape=note;whiteSpace=wrap;html=1;backgroundOutline=1;darkOpacity=0.05;hachureGap=4;fontFamily=Architects Daughter;fontSource=https%3A%2F%2Ffonts.googleapis.com%2Fcss%3Ffamily%3DArchitects%2BDaughter;fontSize=14;size=18;fillColor=#fff2cc;strokeColor=#d6b656;" vertex="1" parent="1">
          <mxGeometry x="300" y="420" width="120" height="30" as="geometry" />
        </mxCell>
        <mxCell id="l_KEQIapoq9a7eLSXvsr-21" value="Ground hum&lt;br style=&quot;font-size: 14px;&quot;&gt;sensor" style="shape=note;whiteSpace=wrap;html=1;backgroundOutline=1;darkOpacity=0.05;hachureGap=4;fontFamily=Architects Daughter;fontSource=https%3A%2F%2Ffonts.googleapis.com%2Fcss%3Ffamily%3DArchitects%2BDaughter;fontSize=14;size=18;fillColor=#fff2cc;strokeColor=#d6b656;" vertex="1" parent="1">
          <mxGeometry x="310" y="550" width="120" height="30" as="geometry" />
        </mxCell>
        <mxCell id="l_KEQIapoq9a7eLSXvsr-40" style="edgeStyle=orthogonalEdgeStyle;sketch=1;hachureGap=4;jiggle=2;curveFitting=1;orthogonalLoop=1;jettySize=auto;html=1;exitX=0.5;exitY=1;exitDx=0;exitDy=0;entryX=0;entryY=0.5;entryDx=0;entryDy=0;fontFamily=Architects Daughter;fontSource=https%3A%2F%2Ffonts.googleapis.com%2Fcss%3Ffamily%3DArchitects%2BDaughter;fontSize=16;curved=1;" edge="1" parent="1" source="l_KEQIapoq9a7eLSXvsr-22" target="l_KEQIapoq9a7eLSXvsr-2">
          <mxGeometry relative="1" as="geometry" />
        </mxCell>
        <mxCell id="l_KEQIapoq9a7eLSXvsr-42" style="edgeStyle=orthogonalEdgeStyle;sketch=1;hachureGap=4;jiggle=2;curveFitting=1;orthogonalLoop=1;jettySize=auto;html=1;entryX=0.5;entryY=1;entryDx=0;entryDy=0;fontFamily=Architects Daughter;fontSource=https%3A%2F%2Ffonts.googleapis.com%2Fcss%3Ffamily%3DArchitects%2BDaughter;fontSize=16;curved=1;" edge="1" parent="1" source="l_KEQIapoq9a7eLSXvsr-22" target="l_KEQIapoq9a7eLSXvsr-1">
          <mxGeometry relative="1" as="geometry" />
        </mxCell>
        <mxCell id="l_KEQIapoq9a7eLSXvsr-22" value="Processing&lt;br style=&quot;font-size: 18px;&quot;&gt;Error" style="ellipse;shape=umlEntity;whiteSpace=wrap;html=1;sketch=1;hachureGap=4;jiggle=2;curveFitting=1;fontFamily=Architects Daughter;fontSource=https%3A%2F%2Ffonts.googleapis.com%2Fcss%3Ffamily%3DArchitects%2BDaughter;fontSize=18;fillColor=#f8cecc;strokeColor=#b85450;" vertex="1" parent="1">
          <mxGeometry x="-75" y="255" width="100" height="100" as="geometry" />
        </mxCell>
        <mxCell id="l_KEQIapoq9a7eLSXvsr-24" value="Processor" style="ellipse;shape=umlControl;whiteSpace=wrap;html=1;sketch=1;hachureGap=4;jiggle=2;curveFitting=1;fontFamily=Architects Daughter;fontSource=https%3A%2F%2Ffonts.googleapis.com%2Fcss%3Ffamily%3DArchitects%2BDaughter;fontSize=18;fillColor=#ffe6cc;strokeColor=#d79b00;" vertex="1" parent="1">
          <mxGeometry x="90" y="160" width="70" height="80" as="geometry" />
        </mxCell>
        <mxCell id="l_KEQIapoq9a7eLSXvsr-35" style="edgeStyle=orthogonalEdgeStyle;rounded=0;sketch=1;hachureGap=4;jiggle=2;curveFitting=1;orthogonalLoop=1;jettySize=auto;html=1;fontFamily=Architects Daughter;fontSource=https%3A%2F%2Ffonts.googleapis.com%2Fcss%3Ffamily%3DArchitects%2BDaughter;fontSize=16;dashed=1;dashPattern=8 8;" edge="1" parent="1" source="l_KEQIapoq9a7eLSXvsr-34" target="l_KEQIapoq9a7eLSXvsr-1">
          <mxGeometry relative="1" as="geometry" />
        </mxCell>
        <mxCell id="l_KEQIapoq9a7eLSXvsr-36" value="Incoming&lt;br&gt;Request" style="edgeLabel;html=1;align=center;verticalAlign=middle;resizable=0;points=[];fontSize=20;fontFamily=Architects Daughter;" vertex="1" connectable="0" parent="l_KEQIapoq9a7eLSXvsr-35">
          <mxGeometry x="-0.5605" y="3" relative="1" as="geometry">
            <mxPoint x="22" y="3" as="offset" />
          </mxGeometry>
        </mxCell>
        <mxCell id="l_KEQIapoq9a7eLSXvsr-34" value="" style="ellipse;shape=cloud;whiteSpace=wrap;html=1;hachureGap=4;fontFamily=Architects Daughter;fontSource=https%3A%2F%2Ffonts.googleapis.com%2Fcss%3Ffamily%3DArchitects%2BDaughter;fontSize=20;fillColor=#f5f5f5;strokeColor=#666666;fontColor=#333333;sketch=1;curveFitting=1;jiggle=2;" vertex="1" parent="1">
          <mxGeometry x="-317" y="100" width="120" height="80" as="geometry" />
        </mxCell>
      </root>
    </mxGraphModel>
  </diagram>
</mxfile>
